<svg width="55" height="55" viewBox="0 0 55 55" fill="none" xmlns="http://www.w3.org/2000/svg">
<g clip-path="url(#clip0_48_183)">
<path fill-rule="evenodd" clip-rule="evenodd" d="M27.5228 0C12.3034 0 0 12.3941 0 27.7273C0 39.9839 7.8832 50.3589 18.8193 54.0309C20.1866 54.3069 20.6874 53.4343 20.6874 52.7002C20.6874 52.0574 20.6423 49.8541 20.6423 47.5584C12.9862 49.2113 11.3919 44.2531 11.3919 44.2531C10.1615 41.0396 8.3384 40.2137 8.3384 40.2137C5.83254 38.5152 8.52093 38.5152 8.52093 38.5152C11.3006 38.6988 12.7591 41.3613 12.7591 41.3613C15.2194 45.5843 19.1838 44.3911 20.7787 43.6565C21.0063 41.8661 21.7358 40.6267 22.5105 39.9382C16.4041 39.2954 9.97949 36.9085 9.97949 26.258C9.97949 23.2282 11.0724 20.7494 12.8042 18.8215C12.531 18.1331 11.5738 15.2864 13.078 11.4764C13.078 11.4764 15.4019 10.7417 20.6418 14.3225C22.8852 13.7156 25.1987 13.4068 27.5228 13.4042C29.8466 13.4042 32.2156 13.7259 34.4032 14.3225C39.6436 10.7417 41.9675 11.4764 41.9675 11.4764C43.4717 15.2864 42.514 18.1331 42.2407 18.8215C44.0182 20.7494 45.066 23.2282 45.066 26.258C45.066 36.9085 38.6414 39.2492 32.4894 39.9382C33.4922 40.8103 34.3575 42.4627 34.3575 45.0795C34.3575 48.7978 34.3125 51.7819 34.3125 52.6996C34.3125 53.4343 34.8139 54.3069 36.1806 54.0314C47.1167 50.3583 54.9999 39.9839 54.9999 27.7273C55.0449 12.3941 42.6965 0 27.5228 0Z" fill="#2D336B"/>
</g>
<defs>
<clipPath id="clip0_48_183">
<rect width="55" height="55" fill="white"/>
</clipPath>
</defs>
</svg>
