<svg width="55" height="55" viewBox="0 0 55 55" fill="none" xmlns="http://www.w3.org/2000/svg">
<g clip-path="url(#clip0_48_175)">
<path d="M50.9399 0H4.06007C2.98327 0 1.95058 0.427757 1.18917 1.18917C0.427757 1.95058 0 2.98327 0 4.06007V50.9399C0 52.0167 0.427757 53.0494 1.18917 53.8108C1.95058 54.5723 2.98327 55 4.06007 55H50.9399C52.0167 55 53.0494 54.5723 53.8108 53.8108C54.5723 53.0494 55 52.0167 55 50.9399V4.06007C55 2.98327 54.5723 1.95058 53.8108 1.18917C53.0494 0.427757 52.0167 0 50.9399 0ZM16.3931 46.8531H8.12396V20.5868H16.3931V46.8531ZM12.2528 16.9469C11.3148 16.9416 10.3994 16.6586 9.6221 16.1335C8.84481 15.6085 8.24047 14.865 7.88534 13.9968C7.53022 13.1286 7.44023 12.1747 7.62674 11.2554C7.81324 10.3361 8.26788 9.49272 8.93327 8.83158C9.59867 8.17045 10.445 7.72124 11.3654 7.54064C12.2859 7.36004 13.2392 7.45615 14.1051 7.81684C14.971 8.17753 15.7106 8.78663 16.2306 9.56728C16.7507 10.3479 17.0278 11.2651 17.0271 12.2031C17.0359 12.8311 16.9183 13.4545 16.6811 14.036C16.4439 14.6176 16.092 15.1454 15.6465 15.5881C15.201 16.0307 14.6709 16.3792 14.0878 16.6126C13.5048 16.8461 12.8807 16.9598 12.2528 16.9469ZM46.8722 46.876H38.6069V32.5264C38.6069 28.2944 36.808 26.9882 34.4858 26.9882C32.0337 26.9882 29.6274 28.8368 29.6274 32.6333V46.876H21.3583V20.6059H29.3104V24.2458H29.4174C30.2156 22.6302 33.0115 19.8688 37.2778 19.8688C41.8917 19.8688 46.876 22.6073 46.876 30.6281L46.8722 46.876Z" fill="#2D336B"/>
</g>
<defs>
<clipPath id="clip0_48_175">
<rect width="55" height="55" fill="white"/>
</clipPath>
</defs>
</svg>
